<?xml version="1.0"?><svg data-name="Layer 2" id="Layer_2" viewBox="0 0 32 32" xmlns="http://www.w3.org/2000/svg"><defs><style>.cls-1{fill:#5233ff;}</style></defs><title/><path class="cls-1" d="M26,8V16.3a1,1,0,0,1-1.26,1l-9.69-2.59a.38.38,0,0,1-.05-.21.51.51,0,0,1,.5-.5H18a1,1,0,0,0,0-2H17a1,1,0,0,0-2,0v0a2.51,2.51,0,0,0-2,2.12L6.75,12.45a1,1,0,0,1-.74-1c0-1.21,0-3.42,0-3.42a3,3,0,0,1,4.33-2.72l.31.15a1,1,0,0,0,.85,0l3.4-1.35a2.94,2.94,0,0,1,2.22,0l3.43,1.37a1,1,0,0,0,.8,0l.27-.13a3.07,3.07,0,0,1,2.77,0A3,3,0,0,1,26,8Z"/><path class="cls-1" d="M28,23a5,5,0,0,1-5,5H13a5,5,0,0,1-5-5V16.15a1,1,0,0,1,1.26-1l9.63,2.58a.48.48,0,0,1-.39.19H16a1,1,0,0,0,0,2h1a1,1,0,0,0,2,0v-.05a2.52,2.52,0,0,0,1.85-1.61L27.25,20A1,1,0,0,1,28,21C28,21.81,28,23,28,23Z"/></svg>